<svg width="31" height="30" viewBox="0 0 31 30" fill="none" xmlns="http://www.w3.org/2000/svg">
<g id="icon">
<path id="Shape" fill-rule="evenodd" clip-rule="evenodd" d="M26.1055 0H29.6211C30.1065 0 30.5 0.393516 30.5 0.878906V4.39453C30.5 4.87992 30.1065 5.27344 29.6211 5.27344H26.1055C25.6201 5.27344 25.2266 4.87992 25.2266 4.39453V3.51562H21.5717C24.7363 5.51994 26.6695 8.89758 26.9019 12.5064C27.9372 12.8624 28.6836 13.8454 28.6836 15C28.6836 16.4539 27.5008 17.6367 26.0469 17.6367C24.593 17.6367 23.4102 16.4539 23.4102 15C23.4102 13.8645 24.1317 12.8943 25.1404 12.5239C24.8284 8.38441 21.8476 4.81916 17.8616 3.8076C17.4295 4.67543 16.5335 5.27344 15.5 5.27344C14.4665 5.27344 13.5705 4.67543 13.1384 3.80754C9.15242 4.8191 6.17164 8.38436 5.85957 12.5238C6.86826 12.8943 7.58984 13.8645 7.58984 15C7.58984 16.4539 6.40701 17.6367 4.95312 17.6367C3.49924 17.6367 2.31641 16.4539 2.31641 15C2.31641 13.8454 3.06277 12.8624 4.09812 12.5064C4.32998 8.90479 6.25748 5.51215 9.42834 3.50391H5.77344V4.39453C5.77344 4.87992 5.37992 5.27344 4.89453 5.27344H1.37891C0.893516 5.27344 0.5 4.87992 0.5 4.39453V0.878906C0.5 0.393516 0.893516 0 1.37891 0H4.89453C5.37992 0 5.77344 0.393516 5.77344 0.878906V1.75781H13.0145C13.3773 0.734883 14.3542 0 15.5 0C16.6458 0 17.6227 0.734883 17.9855 1.75781H25.2266V0.878906C25.2266 0.393516 25.6201 0 26.1055 0ZM2.25781 3.51562H4.01562V1.75781H2.25781V3.51562ZM4.95312 15.8789C4.4685 15.8789 4.07422 15.4846 4.07422 15C4.07422 14.5154 4.4685 14.1211 4.95312 14.1211C5.43775 14.1211 5.83203 14.5154 5.83203 15C5.83203 15.4846 5.43775 15.8789 4.95312 15.8789ZM14.6211 2.63672C14.6211 3.12135 15.0154 3.51562 15.5 3.51562C15.9846 3.51562 16.3789 3.12135 16.3789 2.63672C16.3789 2.15209 15.9846 1.75781 15.5 1.75781C15.0154 1.75781 14.6211 2.15209 14.6211 2.63672ZM26.0469 14.1211C26.5315 14.1211 26.9258 14.5154 26.9258 15C26.9258 15.4846 26.5315 15.8789 26.0469 15.8789C25.5622 15.8789 25.168 15.4846 25.168 15C25.168 14.5154 25.5622 14.1211 26.0469 14.1211ZM26.9844 3.51562H28.7422V1.75781H26.9844V3.51562Z" fill="#9969D3"/>
<path id="Shape_2" fill-rule="evenodd" clip-rule="evenodd" d="M16.2313 7.48125L23.2625 18.0281C23.4949 18.3766 23.4489 18.8409 23.1526 19.1371C21.3991 20.8905 20.283 23.1827 19.979 25.6352C20.1155 25.7455 20.2473 25.8636 20.3722 25.9915C21.1977 26.836 21.6523 27.9475 21.6523 29.1211C21.6523 29.6065 21.2588 30 20.7734 30H10.2266C9.74117 30 9.34766 29.6065 9.34766 29.1211C9.34766 27.9475 9.80229 26.836 10.6278 25.9915C10.7527 25.8637 10.8845 25.7456 11.021 25.6352C10.7169 23.1829 9.60084 20.8907 7.84731 19.1371C7.55106 18.8409 7.50506 18.3767 7.7375 18.0281L14.7688 7.48125L14.7695 7.48014L14.7741 7.47372L14.7774 7.46913C15.109 6.98913 15.8142 6.95807 16.1846 7.41827C16.1979 7.43473 16.2106 7.45161 16.2226 7.46913L16.2259 7.47373L16.2305 7.48014L16.2313 7.48125ZM16.3789 18.5156C16.3789 18.031 15.9846 17.6367 15.5 17.6367C15.0154 17.6367 14.6211 18.031 14.6211 18.5156C14.6211 19.0003 15.0154 19.3945 15.5 19.3945C15.9846 19.3945 16.3789 19.0003 16.3789 18.5156ZM11.2554 28.2422C11.621 27.1973 12.6123 26.4258 13.7422 26.4258H17.2578C18.3877 26.4258 19.379 27.1973 19.7446 28.2422H11.2554ZM17.2578 24.668C17.6228 24.668 17.9812 24.7135 18.3269 24.8017C18.7381 22.4328 19.8064 20.2184 21.4119 18.421L16.3789 10.8716V16.0301C17.4019 16.393 18.1367 17.3699 18.1367 18.5157C18.1367 19.9696 16.9539 21.1524 15.5 21.1524C14.0461 21.1524 12.8633 19.9696 12.8633 18.5157C12.8633 17.3699 13.5981 16.393 14.6211 16.0301V10.8716L9.58819 18.421C11.1936 20.2185 12.2618 22.4329 12.6731 24.8018C13.0188 24.7135 13.3772 24.668 13.7422 24.668H17.2578Z" fill="#9969D3"/>
</g>
</svg>
