<svg width="30" height="30" viewBox="0 0 30 30" fill="none" xmlns="http://www.w3.org/2000/svg">
<path fill-rule="evenodd" clip-rule="evenodd" d="M27.7667 12.4613C27.3356 12.2385 26.8053 12.4075 26.5825 12.8387L25.5597 14.8182L24.5752 12.8491C24.4263 12.5513 24.122 12.3633 23.7891 12.3633C23.4561 12.3633 23.1518 12.5513 23.003 12.8491L22.0313 14.7925L21.0595 12.8491C20.902 12.5339 20.5722 12.3437 20.2197 12.3649L20.1664 12.3682C19.7748 12.3922 19.4591 12.6692 19.368 13.0305C19.3082 12.7898 19.1479 12.5756 18.9087 12.456C18.4747 12.239 17.9466 12.4149 17.7295 12.8491L16.7578 14.7925L15.7862 12.8491C15.6372 12.5513 15.3329 12.3633 15 12.3633C14.6671 12.3633 14.3628 12.5513 14.2139 12.8491L13.2422 14.7925L12.2705 12.8491C12.0534 12.415 11.5255 12.239 11.0913 12.4561C10.8521 12.5757 10.6918 12.7898 10.632 13.0305C10.541 12.6692 10.2252 12.3921 9.83356 12.3681L9.78035 12.3648C9.42856 12.3432 9.09803 12.5339 8.94047 12.8491L7.96875 14.7925L6.99709 12.8491C6.67711 12.2107 5.7518 12.1952 5.42485 12.8491L4.4403 14.8182L3.41754 12.8388C3.19477 12.4076 2.66455 12.2386 2.2333 12.4614C1.80205 12.6842 1.63307 13.2144 1.8559 13.6457L3.67231 17.1613C4.00202 17.7995 4.91772 17.794 5.23928 17.151L6.21094 15.2075L7.18266 17.1508C7.50633 17.7981 8.432 17.7967 8.75491 17.1508L10.3925 13.8754C10.5077 13.7635 10.5924 13.6197 10.6326 13.4574C10.6479 13.5177 10.6693 13.5773 10.6983 13.6352L12.4561 17.1508C12.7798 17.7981 13.7054 17.7967 14.0283 17.1508L15 15.2075L15.9717 17.1508C16.2953 17.7981 17.2211 17.7967 17.5439 17.1508L19.3017 13.6352C19.3307 13.5773 19.3521 13.5177 19.3674 13.4574C19.4076 13.6198 19.4923 13.7636 19.6075 13.8756L21.2452 17.1508C21.5687 17.7981 22.4946 17.7967 22.8173 17.1508L23.7891 15.2075L24.7608 17.1508C25.0819 17.7933 25.9977 17.7999 26.3277 17.1612L28.1441 13.6455C28.3669 13.2143 28.198 12.6841 27.7667 12.4613Z" fill="#9969D3"/>
<path fill-rule="evenodd" clip-rule="evenodd" d="M28.8886 9.33568C26.655 3.88424 21.2471 0 15 0C8.75133 0 3.34441 3.88559 1.11146 9.33562C0.439512 9.81398 0 10.5986 0 11.4844V18.5156C0 19.4014 0.439512 20.186 1.11146 20.6644C3.34494 26.1156 8.75279 30 15 30C21.2487 30 26.6555 26.1144 28.8886 20.6643C29.5605 20.186 30 19.4014 30 18.5156V11.4844C30 10.5986 29.5605 9.81404 28.8886 9.33568ZM26.7214 8.84766H22.228C21.6694 6.45439 20.7976 4.39383 19.6883 2.85598C19.6108 2.74857 19.5323 2.64439 19.4531 2.54279C22.5356 3.65859 25.1616 5.89963 26.7214 8.84766ZM15.8789 1.905C18.2839 2.71248 19.7878 6.35332 20.4191 8.84766H15.8789V1.905ZM14.1211 1.905V8.84766H9.58084C10.0857 6.85318 10.8229 5.15197 11.7373 3.8843C12.2867 3.1227 13.1038 2.24654 14.1211 1.905ZM10.5469 2.54279C10.4677 2.64439 10.3892 2.74852 10.3117 2.85598C9.20244 4.39383 8.33051 6.45439 7.77199 8.84766H3.27861C4.83838 5.89963 7.46432 3.65859 10.5469 2.54279ZM3.27861 21.1523H7.77199C8.28352 23.344 9.16225 25.6825 10.5469 27.4572C7.46432 26.3414 4.83838 24.1004 3.27861 21.1523ZM14.1211 28.095C11.7161 27.2875 10.2122 23.6467 9.58084 21.1523H14.1211V28.095ZM15.8789 28.095V21.1406H20.4192C19.7868 23.6387 18.2788 27.2892 15.8789 28.095ZM19.4531 27.4572C20.8376 25.6828 21.7164 23.3328 22.228 21.1406H26.7214C25.1616 24.0887 22.5357 26.3414 19.4531 27.4572ZM28.2422 18.5156C28.2422 19.0003 27.8479 19.3945 27.3633 19.3945C26.8056 19.3945 3.27422 19.3945 2.63672 19.3945C2.15209 19.3945 1.75781 19.0003 1.75781 18.5156V11.4844C1.75781 10.9997 2.15209 10.6055 2.63672 10.6055C3.30674 10.6055 26.7616 10.6055 27.3633 10.6055C27.8479 10.6055 28.2422 10.9997 28.2422 11.4844V18.5156Z" fill="#5A5F69"/>
</svg>
