<svg width="30" height="30" viewBox="0 0 30 30" fill="none" xmlns="http://www.w3.org/2000/svg">
<g id="icon">
<path id="Shape" fill-rule="evenodd" clip-rule="evenodd" d="M24.8777 26.4844C25.2405 25.4614 26.2175 24.7266 27.3633 24.7266C28.8172 24.7266 30 25.9094 30 27.3633C30 28.8172 28.8172 30 27.3633 30C26.2175 30 25.2405 29.2651 24.8777 28.2422H17.4855C17.1227 29.2651 16.1458 30 15 30C13.8542 30 12.8773 29.2651 12.5145 28.2422H5.12227C4.75945 29.2651 3.78252 30 2.63672 30C1.18283 30 0 28.8172 0 27.3633C0 25.9094 1.18283 24.7266 2.63672 24.7266C3.78252 24.7266 4.75945 25.4614 5.12227 26.4844H12.5145C12.7797 25.7365 13.3732 25.143 14.1211 24.8777V21.1523H4.45312C2.99924 21.1523 1.81641 19.9695 1.81641 18.5156V4.39453C1.81641 2.94064 2.99924 1.75781 4.45312 1.75781H17.2972C17.6695 0.704531 18.6619 0 19.7826 0H25.5469C27.0008 0 28.1836 1.18283 28.1836 2.63672V18.5156C28.1836 19.9695 27.0008 21.1523 25.5469 21.1523H15.8789V24.8777C16.6268 25.143 17.2203 25.7365 17.4855 26.4844H24.8777ZM1.75781 27.3633C1.75781 27.8479 2.15209 28.2422 2.63672 28.2422C3.12135 28.2422 3.51562 27.8479 3.51562 27.3633C3.51562 26.8787 3.12135 26.4844 2.63672 26.4844C2.15209 26.4844 1.75781 26.8787 1.75781 27.3633ZM3.57422 4.39453C3.57422 3.9099 3.9685 3.51562 4.45312 3.51562H16.7102L16.3246 4.67244C16.2049 5.03191 15.8698 5.27344 15.4908 5.27344H3.57422V4.39453ZM3.57422 18.5156C3.57422 19.0003 3.9685 19.3945 4.45312 19.3945H25.5469C26.0315 19.3945 26.4258 19.0003 26.4258 18.5156V2.63672C26.4258 2.15209 26.0315 1.75781 25.5469 1.75781H19.7826C19.4037 1.75781 19.0686 1.99934 18.9487 2.35881L17.9923 5.22832C17.6328 6.30674 16.6275 7.03125 15.4908 7.03125H3.57422V18.5156ZM15 28.2422C14.5154 28.2422 14.1211 27.8479 14.1211 27.3633C14.1211 26.8787 14.5154 26.4844 15 26.4844C15.4846 26.4844 15.8789 26.8787 15.8789 27.3633C15.8789 27.8479 15.4846 28.2422 15 28.2422ZM26.4844 27.3633C26.4844 27.8479 26.8787 28.2422 27.3633 28.2422C27.8479 28.2422 28.2422 27.8479 28.2422 27.3633C28.2422 26.8787 27.8479 26.4844 27.3633 26.4844C26.8787 26.4844 26.4844 26.8787 26.4844 27.3633Z" fill="#5A5F69"/>
<path id="Path" d="M23.7891 15.8789H20.2734C19.788 15.8789 19.3945 16.2724 19.3945 16.7578C19.3945 17.2432 19.788 17.6367 20.2734 17.6367H23.7891C24.2745 17.6367 24.668 17.2432 24.668 16.7578C24.668 16.2724 24.2745 15.8789 23.7891 15.8789Z" fill="#5A5F69"/>
<path id="Path_2" d="M23.7891 12.3633H20.2734C19.788 12.3633 19.3945 12.7568 19.3945 13.2422C19.3945 13.7276 19.788 14.1211 20.2734 14.1211H23.7891C24.2745 14.1211 24.668 13.7276 24.668 13.2422C24.668 12.7568 24.2745 12.3633 23.7891 12.3633Z" fill="#5A5F69"/>
</g>
</svg>
