<svg width="29" height="30" viewBox="0 0 29 30" fill="none" xmlns="http://www.w3.org/2000/svg">
<g id="software eng icon">
<path id="Path" d="M9.16729 13.2417L10.3037 12.1053C10.6469 11.7621 10.6469 11.2057 10.3037 10.8624C9.96048 10.5191 9.40395 10.5191 9.06065 10.8624L7.30278 12.6202C6.95954 12.9635 6.95954 13.5199 7.30278 13.8632L9.06065 15.6211C9.40384 15.9643 9.96042 15.9643 10.3037 15.6211C10.6469 15.2779 10.6469 14.7214 10.3037 14.3781L9.16729 13.2417Z" fill="#5A5F69"/>
<path id="Path_2" d="M19.093 12.6203L17.3351 10.8624C16.9919 10.5191 16.4354 10.5191 16.0921 10.8624C15.7489 11.2056 15.7489 11.7621 16.0921 12.1054L17.2286 13.2418L16.0921 14.3782C15.7489 14.7215 15.7489 15.2779 16.0921 15.6212C16.4353 15.9645 16.9919 15.9645 17.3351 15.6212L19.093 13.8634C19.4363 13.5201 19.4363 12.9636 19.093 12.6203Z" fill="#5A5F69"/>
<path id="Path_3" d="M14.29 8.87333C13.819 8.75573 13.3419 9.04191 13.2241 9.51282L11.4662 16.5443C11.3485 17.0152 11.6348 17.4924 12.1057 17.6101C12.5768 17.7278 13.0539 17.4414 13.1716 16.9706L14.9294 9.93915C15.0473 9.46823 14.7609 8.99105 14.29 8.87333Z" fill="#5A5F69"/>
<path id="Shape" fill-rule="evenodd" clip-rule="evenodd" d="M10.5848 3.86081C14.0132 2.95085 17.5365 3.88401 20.0094 6.35702C22.4992 8.84685 23.4378 12.3974 22.5202 15.8548C21.4941 19.7207 17.9083 22.9083 13.1994 22.9083C10.649 22.9083 8.21121 21.9219 6.36439 20.0752C3.89221 17.6029 2.9618 14.0715 3.87557 10.6286C4.74053 7.36946 7.37408 4.71288 10.5848 3.86081ZM15.3601 20.8651C17.9818 20.1692 20.1254 18.0256 20.8212 15.4039C21.5762 12.5589 20.8081 9.64161 18.7665 7.60003C16.7372 5.57081 13.8454 4.81425 11.0358 5.55991C8.42414 6.25302 6.28055 8.41964 5.57461 11.0796C4.82338 13.91 5.58334 16.8082 7.6074 18.8323C11.0338 22.2585 15.4187 20.8651 15.3601 20.8651Z" fill="#5A5F69"/>
<path id="Shape_2" fill-rule="evenodd" clip-rule="evenodd" d="M26.3803 13.0308L28.5328 17.3361C29.374 19.0185 28.2336 21.0014 26.3818 21.1441V22.0311C26.3818 24.4543 24.4103 26.4257 21.9871 26.4257H19.3503V29.1211C19.3503 29.6065 18.9568 30 18.4714 30H6.16641C5.68101 30 5.2875 29.6065 5.2875 29.1211V26.0062C2.03631 23.6545 0.0138855 19.8482 0.0138855 15.3874V13.6706C0.0138269 10.4063 1.15699 7.22743 3.23256 4.71961C5.35383 2.15666 8.27795 0.519788 11.4664 0.110511C15.3694 -0.390465 19.0829 0.836722 21.8674 3.28664C24.6834 5.76416 26.3206 9.30545 26.3803 13.0308ZM25.5029 19.3942H26.1744C26.8277 19.3942 27.2528 18.7069 26.9606 18.1221L24.7169 13.6347C24.6558 13.5126 24.6241 13.3781 24.6241 13.2416C24.6241 9.94442 23.1961 6.79694 20.7063 4.60629C18.2055 2.40616 15.0036 1.42864 11.6903 1.85403C6.0358 2.57994 1.77182 7.65991 1.77182 13.6706V15.3874C1.77182 19.3105 3.55125 22.7469 6.65402 24.8155C6.89853 24.9784 7.04537 25.2529 7.04537 25.5467V28.2421H17.5926V25.5467C17.5926 25.0613 17.9861 24.6678 18.4715 24.6678H21.9872C23.4411 24.6678 24.624 23.485 24.624 22.031V20.2731C24.624 19.7878 25.0175 19.3942 25.5029 19.3942Z" fill="#5A5F69"/>
</g>
</svg>
