<svg width="22" height="20" viewBox="0 0 22 20" fill="none" xmlns="http://www.w3.org/2000/svg">
<path fill-rule="evenodd" clip-rule="evenodd" d="M18.7087 3.45291C16.9396 1.60538 14.1225 1.44248 12.1694 3.07443L11 4.05185L9.83057 3.07443C7.87747 1.44248 5.06038 1.60538 3.29129 3.45291C1.4895 5.33458 1.38022 8.30878 3.06898 10.2285C4.53824 11.9004 6.25036 13.7519 7.79154 15.179C8.564 15.894 9.27201 16.4832 9.87073 16.888C10.5171 17.324 10.8786 17.4343 11 17.4343C11.1214 17.4343 11.4829 17.324 12.1293 16.888C12.728 16.4832 13.436 15.894 14.2085 15.179C15.7496 13.7519 17.4618 11.9004 18.931 10.2285C20.6188 8.30878 20.5105 5.33458 18.7087 3.45291ZM11.0019 1.55076C13.6994 -0.701593 17.5869 -0.477236 20.0295 2.07263C22.5019 4.65566 22.7074 8.81797 20.3069 11.5483C18.8227 13.2368 17.0601 15.1458 15.4479 16.6392C14.6437 17.3845 13.8554 18.0449 13.1427 18.5268C12.4786 18.9755 11.7136 19.3852 11 19.3852C10.2864 19.3852 9.5214 18.9755 8.85729 18.5268C8.14461 18.0449 7.35627 17.3845 6.55205 16.6392C4.93988 15.1458 3.17733 13.2368 1.69313 11.5483C-0.707381 8.81797 -0.50189 4.65566 1.97054 2.07263C4.41308 -0.477236 8.3006 -0.701593 10.9981 1.55076L11 1.55271L11.0019 1.55076Z" fill="#9969D3"/>
</svg>
