<svg width="11" height="14" viewBox="0 0 11 14" fill="none" xmlns="http://www.w3.org/2000/svg">
<path fill-rule="evenodd" clip-rule="evenodd" d="M5.31533 1.18119C3.0321 1.18119 1.18119 3.02974 1.18119 5.31533C1.18119 6.98671 1.92592 8.61084 2.84843 9.9633C3.74436 11.2862 4.77199 12.302 5.31533 12.7981C5.85868 12.302 6.88631 11.2862 7.78224 9.9633C8.70475 8.61084 9.44948 6.98671 9.44948 5.31533C9.44948 3.02974 7.59857 1.18119 5.31533 1.18119ZM0 5.31533C0 2.38009 2.3795 0 5.31533 0C8.25117 0 10.6307 2.38009 10.6307 5.31533C10.6307 7.32335 9.74419 9.17781 8.75967 10.6307C7.76984 12.0835 6.64181 13.1879 6.07129 13.7077C5.63957 14.0974 4.9911 14.0974 4.55938 13.7077C3.98886 13.1879 2.86083 12.0835 1.871 10.6307C0.88648 9.17781 0 7.32335 0 5.31533ZM5.31533 4.13415C4.66332 4.13415 4.13415 4.66568 4.13415 5.31533C4.13415 5.96499 4.66332 6.49652 5.31533 6.49652C5.96735 6.49652 6.49652 5.96499 6.49652 5.31533C6.49652 4.66568 5.96735 4.13415 5.31533 4.13415ZM2.95296 5.31533C2.95296 4.01012 4.01072 2.95296 5.31533 2.95296C6.61995 2.95296 7.6777 4.01012 7.6777 5.31533C7.6777 6.62054 6.61995 7.6777 5.31533 7.6777C4.01072 7.6777 2.95296 6.62054 2.95296 5.31533Z" fill="#9EA1A5"/>
</svg>
